<svg width="51" height="64" viewBox="0 0 51 64" fill="none" xmlns="http://www.w3.org/2000/svg">
<path fill-rule="evenodd" clip-rule="evenodd" d="M1.36707 38.8326C0.538121 40.8243 0.0750198 42.9492 0 45.1053C0.114393 46.435 0.567795 47.7132 1.31688 48.8177C2.72643 50.45 4.42153 51.8118 6.31913 52.8362L18.575 60.9974C20.0831 62.1979 21.7789 63.1413 23.594 63.7896C24.7725 64.0701 26.0004 64.0701 27.179 63.7896C29.0062 63.1492 30.7156 62.2124 32.2386 61.0166L44.6259 52.8506C46.5429 51.8231 48.2572 50.4558 49.6855 48.8154C50.4399 47.7049 50.8929 46.4173 51 45.079C50.9186 42.9053 50.4433 40.7646 49.5971 38.7608L38.7633 4.6577C38.5214 3.55323 38.0844 2.50082 37.4727 1.55002C37.0271 1.00856 36.4515 0.589069 35.7997 0.330857C34.7105 0.0354997 33.5775 -0.06326 32.4537 0.0392138H18.348C17.2237 -0.0630001 16.0903 0.0382218 15.002 0.338029C14.3486 0.59572 13.7724 1.01721 13.329 1.56197C12.72 2.51282 12.2868 3.56547 12.0503 4.66965L1.36707 38.8326ZM33.0105 7.2777C33.5144 8.07902 33.8714 8.96383 34.0645 9.89054L43.3664 40.4509C39.8726 38.6383 36.1224 37.3703 32.2457 36.6906L26.2015 16.2278C26.1643 16.1069 26.0987 15.9967 26.0102 15.9064C25.9217 15.8161 25.8129 15.7484 25.6928 15.7088C25.5728 15.6692 25.445 15.659 25.3201 15.6791C25.1953 15.6991 25.0771 15.7487 24.9754 15.8238C24.8389 15.9237 24.739 16.0656 24.691 16.2278L18.716 36.6835C14.821 37.3617 11.0534 38.6347 7.5452 40.4581L16.8853 9.89771C17.0765 8.96928 17.4344 8.08322 17.9417 7.28249C18.3116 6.82838 18.79 6.47485 19.3326 6.25456C20.2469 6.00739 21.198 5.92642 22.1409 6.01551H28.8161C29.7597 5.92634 30.7117 6.00731 31.6267 6.25456C32.171 6.47548 32.6504 6.83078 33.0201 7.28727L33.0105 7.2777ZM25.8095 44.1228C28.6858 44.2893 31.5382 43.5148 33.9355 41.9163C34.208 42.7743 34.3046 43.6786 34.2196 44.5748C34.1346 45.4711 33.8697 46.341 33.4407 47.1324C32.559 48.6315 31.2792 49.857 29.7434 50.6728C28.1326 51.6959 26.7464 52.5852 26.7464 54.9446C26.7444 55.7015 26.9152 56.4488 27.2459 57.1296C26.1596 56.6783 25.2313 55.9152 24.5784 54.9367C23.9254 53.9581 23.5771 52.8079 23.5773 51.6314V51.4856C23.5773 49.8528 23.5773 47.8424 21.2781 47.8424C20.9576 47.8422 20.6401 47.9048 20.3436 48.0265C19.7469 48.2736 19.2725 48.7473 19.0243 49.3437C18.9011 49.6399 18.837 49.9575 18.8355 50.2784C17.2596 48.557 16.4131 46.2911 16.4742 43.9578C16.463 42.948 16.604 41.9423 16.8925 40.9745C17.8484 42.7841 21.4812 44.1299 25.8095 44.1299V44.1228Z" fill="white"/>
</svg>
