<svg width="44" height="64" viewBox="0 0 44 64" fill="none" xmlns="http://www.w3.org/2000/svg">
<path fill-rule="evenodd" clip-rule="evenodd" d="M19.5282 4.98054H12.236C8.20867 4.98054 4.94385 8.26959 4.94385 12.3268C4.94385 16.3841 8.20867 19.6731 12.236 19.6731H19.5282V4.98054ZM19.5282 0H24.472H31.7642C38.5222 0 44 5.51889 44 12.3268C44 16.3443 42.0927 19.913 39.1397 22.1634C42.0927 24.4139 44 27.9825 44 32C44 38.8079 38.5222 44.3269 31.7642 44.3269C29.0318 44.3269 26.5086 43.4246 24.472 41.8996V44.3269V51.6732C24.472 58.4811 18.9938 64 12.236 64C5.47823 64 0 58.4811 0 51.6732C0 47.6554 1.90773 44.087 4.8604 41.8365C1.90773 39.5861 0 36.0175 0 32C0 27.9825 1.90778 24.4139 4.86049 22.1635C1.90778 19.913 0 16.3443 0 12.3268C0 5.51889 5.47823 0 12.236 0H19.5282ZM24.472 4.98054V19.6731H31.7642C35.7917 19.6731 39.0562 16.3841 39.0562 12.3268C39.0562 8.26959 35.7917 4.98054 31.7642 4.98054H24.472ZM12.236 39.3462H19.5282V32.0189V32V31.9811V24.6537H12.236C8.20867 24.6537 4.94385 27.9428 4.94385 32C4.94385 36.0476 8.19304 39.3306 12.2071 39.3463L12.236 39.3462ZM4.94385 51.6732C4.94385 47.6255 8.19304 44.3426 12.2071 44.3268L12.236 44.3269H19.5282V51.6732C19.5282 55.7303 16.2634 59.0195 12.236 59.0195C8.20867 59.0195 4.94385 55.7303 4.94385 51.6732ZM24.472 31.9854C24.4799 27.9349 27.7417 24.6537 31.7642 24.6537C35.7917 24.6537 39.0562 27.9428 39.0562 32C39.0562 36.0573 35.7917 39.3463 31.7642 39.3463C27.7417 39.3463 24.4799 36.0652 24.472 32.0147V31.9854Z" fill="white"/>
</svg>
