<svg width="64" height="60" viewBox="0 0 64 60" fill="none" xmlns="http://www.w3.org/2000/svg">
<path d="M25.496 0C22.5795 0.652174 19.6831 1.55289 16.9627 2.91092C17.0247 5.29295 17.1807 7.57158 17.4947 9.88004C16.4426 10.5541 15.3384 11.1327 14.3582 11.9201C13.3581 12.6756 12.3379 13.4113 11.4298 14.3021C9.6175 13.121 7.71121 12.0036 5.7309 11.0194C3.60456 13.288 1.62625 15.7416 0 18.4855C1.21819 20.454 2.50039 22.2853 3.87661 24.037H3.90861V40.8861C3.94062 40.8861 3.97062 40.8861 4.00263 40.8961L14.4002 41.8902C14.9423 41.9419 15.3684 42.3774 15.4004 42.9262L15.7225 47.4834L24.7859 48.1257L25.412 43.9203C25.496 43.3716 25.9641 42.9679 26.5161 42.9679H37.4859C38.0379 42.9679 38.506 43.3716 38.59 43.9203L39.2161 48.1257L48.2795 47.4834L48.6016 42.9262C48.6336 42.3774 49.0597 41.9419 49.6118 41.8902L59.9994 40.8961C60.0314 40.8961 60.0614 40.8861 60.0934 40.8861V24.037H60.1354C61.5116 22.2972 62.7818 20.454 64 18.4855C62.3857 15.7416 60.3954 13.2861 58.2691 11.0194C56.3008 12.0036 54.3825 13.121 52.5702 14.3021C51.6641 13.4113 50.6539 12.6756 49.6538 11.9201C48.6636 11.1327 47.5594 10.5521 46.5073 9.88004C46.8193 7.57158 46.9753 5.29295 47.0393 2.91092C44.3309 1.55488 41.4345 0.654162 38.506 0C37.3398 1.95652 36.2757 4.07012 35.3495 6.13004C34.2453 5.95307 33.1312 5.88149 32.027 5.87155H31.975C30.8708 5.88149 29.7567 5.95506 28.6525 6.13004C27.7243 4.07012 26.6622 1.95652 25.486 0H25.496ZM17.2747 24.6673C20.7332 24.6673 23.5357 27.4629 23.5357 30.9007C23.5357 34.3385 20.7332 37.1242 17.2747 37.1242C13.8162 37.1242 11.0137 34.3385 11.0137 30.9007C11.0137 27.4629 13.8162 24.6673 17.2747 24.6673ZM46.7393 24.6673C50.1978 24.6673 53.0003 27.4629 53.0003 30.9007C53.0003 34.3385 50.1978 37.1242 46.7393 37.1242C43.2808 37.1242 40.4783 34.3385 40.4783 30.9007C40.4783 27.4629 43.2808 24.6673 46.7393 24.6673ZM17.8688 27.1428C15.5764 27.1428 13.7121 28.9859 13.7121 31.2745C13.7121 33.5532 15.5764 35.3963 17.8688 35.3963C20.1712 35.3963 22.0354 33.5532 22.0354 31.2745C22.0354 28.9859 20.1712 27.1428 17.8688 27.1428ZM46.1352 27.1428C43.8428 27.1428 41.9786 28.9859 41.9786 31.2745C41.9786 33.5532 43.8428 35.3963 46.1352 35.3963C48.4376 35.3963 50.2919 33.5532 50.2919 31.2745C50.2919 28.9859 48.4376 27.1428 46.1352 27.1428ZM32.007 28.3437C33.1212 28.3437 34.0273 29.151 34.0273 30.1551V35.8914C34.0273 36.8955 33.1212 37.7147 32.007 37.7147C30.8928 37.7147 29.9867 36.8975 29.9867 35.8914V30.1551C29.9867 29.151 30.8928 28.3437 32.007 28.3437ZM3.89861 43.1111C3.89861 44.1152 3.90861 45.2028 3.90861 45.4195C3.90861 55.2379 16.4306 59.9483 31.985 60H32.027C47.5814 59.9483 60.0934 55.2359 60.0934 45.4195C60.0934 45.2028 60.1034 44.1152 60.1134 43.1111L50.7679 44.0118L50.4459 48.5989C50.4039 49.1477 49.9658 49.5931 49.4137 49.6249L38.256 50.4122C37.7139 50.4122 37.2358 50.0186 37.1518 49.4698L36.5157 45.1829H27.4823L26.8462 49.4698C26.7622 50.0384 26.2521 50.454 25.658 50.4122L14.5943 49.6249C14.0422 49.5831 13.5941 49.1477 13.5521 48.5989L13.2401 44.0118L3.89461 43.121L3.89861 43.1111Z" fill="white"/>
</svg>
