<svg width="74" height="82" viewBox="0 0 74 82" fill="none" xmlns="http://www.w3.org/2000/svg">
<path fill-rule="evenodd" clip-rule="evenodd" d="M4.93003 15.5392C17.7577 -5.43787 56.5483 -5.09446 69.0843 16.0714C76.2268 28.1294 74.0892 44.4753 69.4085 57.2365C68.8417 58.7973 67.1573 60.5306 66.9144 61.5597C66.4775 63.4977 69.2947 64.613 68.0638 68.6779C67.3505 71.045 60.3226 76.7729 58.0873 77.0822C55.8522 77.3909 51.7215 72.1078 49.1624 74.8175H49.1947C48.5469 75.5036 48.9195 78.3509 47.3812 79.3459C46.1341 80.152 37.5181 81.6269 35.6712 81.507C34.5699 81.4384 26.877 79.689 26.3421 79.3459C24.3662 78.0766 26.0016 73.2572 21.3861 74.2345C18.8756 74.7663 18.0978 77.6314 15.0042 76.8595C13.2713 76.4307 7.06878 71.5252 6.1937 69.8097C3.71578 64.9044 7.27775 63.7207 6.79233 61.5597C6.54939 60.5134 4.88126 58.7973 4.29819 57.2365C-0.463448 44.2351 -2.56884 27.7858 4.93003 15.5392ZM37.1615 2.69253C36.1573 2.50386 26.9258 12.1768 27.1517 13.3439C27.9939 17.7006 33.8736 8.91912 35.2503 8.64468V44.6125C34.2462 44.3552 33.5165 43.2403 32.8363 42.4513C28.609 37.4427 22.0009 25.8305 17.8871 22.2628C16.9474 21.4567 14.5838 20.4628 14.9886 22.7609L35.266 51.131C36.9981 55.642 20.6256 65.2464 23.1185 67.7853C25.6128 70.3239 32.8857 59.3637 35.2503 58.3517C35.6066 60.5301 34.2781 69.844 36.4808 70.3586C37.2741 70.5471 38.4885 69.3989 38.4896 69.0724V54.921C40.6602 55.934 48.3686 70.169 50.6361 67.7853C52.45 65.8643 41.227 54.8023 40.9183 51.9201C40.9183 49.6388 43.7047 48.9865 44.6927 47.7687C53.8597 36.4482 58.605 18.5933 38.4896 19.7765V8.6271L44.5794 14.63L46.5873 12.5041L37.1615 2.69253ZM27.5404 54.8869C30.3908 50.0158 26.2449 46.3287 21.2728 47.3576C10.2268 49.656 10.518 64.2521 21.5316 60.5128C22.1799 60.2893 27.2974 55.3157 27.5404 54.8869ZM59.5931 51.8341C58.1193 49.2099 51.722 46.6888 48.7904 47.3576H48.806C45.6319 48.0782 44.5791 52.1255 46.1986 54.8869C46.4577 55.3156 51.5586 60.2889 52.2074 60.5128C58.4753 62.6397 63.0914 58.0603 59.5931 51.8341ZM38.4896 22.3146C58.2808 22.4692 47.9805 41.5763 38.4896 48.9005V22.3146Z" fill="white"/>
</svg>
