<svg width="56" height="64" viewBox="0 0 56 64" fill="none" xmlns="http://www.w3.org/2000/svg">
<path d="M56 18.4572V45.5242C56 47.2807 55.0675 48.9163 53.5691 49.8004L30.4301 63.3413C29.6901 63.7764 28.8506 64 27.9934 64C27.1484 64 26.3067 63.7764 25.5665 63.3413L17.8406 58.7085C16.6881 58.0564 17.2505 57.8244 17.6315 57.6905C19.1705 57.1492 19.4818 57.0245 21.1247 56.0795C21.2961 55.9802 21.5221 56.019 21.6989 56.1225L27.6343 59.6943C27.8494 59.8172 28.1533 59.8172 28.3511 59.6943L51.4919 46.1571C51.7074 46.0324 51.8456 45.7835 51.8456 45.5243V18.4572C51.8456 18.192 51.7074 17.9444 51.4865 17.8105L28.3552 4.28534C28.1419 4.15884 27.8572 4.15884 27.6424 4.28534L4.51637 17.8143C4.29171 17.9445 4.14997 18.1999 4.14997 18.4572V45.5242C4.14997 45.7833 4.29159 46.0263 4.51501 46.1491L10.8542 49.8631C14.2931 51.6044 16.3996 49.5519 16.3996 47.489V20.7667C16.3996 20.3888 16.699 20.0908 17.0717 20.0908H20.0062C20.3731 20.0908 20.6771 20.3887 20.6771 20.7667V47.4891C20.6771 52.1415 18.1765 54.8102 13.8247 54.8102C12.4881 54.8102 11.4339 54.8102 8.49396 53.3432L2.42674 49.8004C0.92742 48.9243 0 47.2808 0 45.5242V18.4572C0 16.6983 0.92742 15.0568 2.42674 14.1819L25.5667 0.629448C27.031 -0.209816 28.9783 -0.209816 30.4301 0.629448L53.5691 14.1819C55.0675 15.0604 56 16.6983 56 18.4572ZM36.0535 42.9422C29.1482 42.9422 27.6288 41.1828 27.1198 37.7025C27.0609 37.331 26.7469 37.0544 26.3706 37.0544H22.9963C22.5784 37.0544 22.243 37.3929 22.243 37.8189C22.243 42.2726 24.6347 47.5843 36.0535 47.5843C44.3213 47.5843 49.062 44.2855 49.062 38.5237C49.062 32.8097 45.2526 31.2896 37.2348 30.2137C29.131 29.1269 28.3075 28.5672 28.3075 26.6433C28.3075 25.0575 29.0048 22.9384 35.0072 22.9384C40.3671 22.9384 42.3431 24.1093 43.1556 27.7698C43.2272 28.1149 43.5366 28.3666 43.8876 28.3666H47.2746C47.4847 28.3666 47.6842 28.2752 47.827 28.1233C47.9701 27.963 48.0461 27.7542 48.026 27.5353C47.502 21.2258 43.3657 18.2867 35.0071 18.2867C27.5668 18.2867 23.1294 21.4697 23.1294 26.8036C23.1294 32.592 27.5446 34.193 34.6835 34.9072C43.2272 35.7566 43.8903 37.0217 43.8903 38.7256C43.8903 41.6813 41.5505 42.9422 36.0535 42.9422Z" fill="white"/>
</svg>
