<svg width="46" height="64" viewBox="0 0 46 64" fill="none" xmlns="http://www.w3.org/2000/svg">
<path d="M45.5449 55.0996C45.5447 60.0138 35.3437 64 22.7725 64C10.2012 64 0.000234152 60.0138 0 55.0996V48.6152C1.12001 49.2904 2.29388 49.8725 3.50879 50.3564C3.62525 50.4021 3.74388 50.4553 3.86719 50.501C9.93197 52.6585 16.3364 53.7045 22.7725 53.5889C29.2083 53.7012 35.6121 52.6553 41.6777 50.501L42.0361 50.3564C43.2511 49.8725 44.4249 49.2904 45.5449 48.6152V55.0996ZM0 33.2959C1.23191 34.0355 2.52581 34.6665 3.86719 35.1816C9.93328 37.3335 16.337 38.3771 22.7725 38.2627C29.2072 38.3808 35.611 37.3414 41.6777 35.1934C43.0197 34.6796 44.3137 34.0485 45.5449 33.3076V41.0557C45.5449 42.1185 44.0339 43.9653 39.7734 45.627C37.8453 46.3622 35.8571 46.9296 33.8311 47.3213C30.1875 48.0254 26.4834 48.3714 22.7725 48.3545C19.0614 48.3707 15.3574 48.0242 11.7139 47.3193C9.68777 46.9277 7.69964 46.3603 5.77148 45.625C1.51592 43.9566 0.000307757 42.117 0 41.0518V33.2959ZM45.5449 25.7256C45.5449 26.7884 44.034 28.6352 39.7734 30.2969C34.3153 32.2162 28.5571 33.1409 22.7725 33.0264C16.9881 33.1416 11.2297 32.2183 5.77148 30.2998C1.51548 28.6358 0 26.7973 0 25.7139V17.5996C1.48857 18.6 3.08703 19.4276 4.76367 20.0645C10.5396 22.1274 16.6399 23.1333 22.7725 23.0352C28.9056 23.1352 35.0064 22.1274 40.7812 20.0596C42.4571 19.4228 44.0554 18.5971 45.5449 17.5996V25.7256ZM22.7725 0C35.3492 2.42925e-05 45.5447 3.98484 45.5449 8.90039C45.5449 13.816 35.3493 17.8008 22.7725 17.8008C10.1955 17.8008 0 13.816 0 8.90039C0.000249244 3.98482 10.1957 0 22.7725 0Z" fill="white"/>
</svg>
