<svg width="64" height="38" viewBox="0 0 64 38" fill="none" xmlns="http://www.w3.org/2000/svg">
<path d="M16 12.6667C18.1333 4.22222 23.4667 0 32 0C44.8 0 46.4 9.5 52.8 11.0833C57.0667 12.1389 60.8 10.5556 64 6.33333C61.8667 14.7778 56.5333 19 48 19C35.2 19 33.6 9.5 27.2 7.91667C22.9333 6.86111 19.2 8.44444 16 12.6667ZM0 31.6667C2.13333 23.2222 7.46667 19 16 19C28.8 19 30.4 28.5 36.8 30.0833C41.0667 31.1389 44.8 29.5556 48 25.3333C45.8667 33.7778 40.5333 38 32 38C19.2 38 17.6 28.5 11.2 26.9167C6.93333 25.8611 3.2 27.4444 0 31.6667Z" fill="white"/>
</svg>
