<svg width="64" height="64" viewBox="0 0 64 64" fill="none" xmlns="http://www.w3.org/2000/svg">
<path d="M44.5407 1.01953C44.5648 0.99265 46.3969 -1.03623 49.1843 0.705078L62.0261 6.96191C62.0537 6.97143 63.987 7.64543 63.987 9.56836V53.6338C63.987 53.6338 64.2539 55.2558 62.3571 56.5625L47.5417 63.9414C47.5417 63.9414 46.2033 64.3156 45.0993 63.1738L44.9919 63.0537L0.609077 22.3174C0.609077 22.3174 -0.949977 21.1816 0.920601 19.665L5.279 15.7266C5.279 15.7266 6.52594 14.4002 7.84443 15.5557L19.2517 24.2852L44.5407 1.01953C44.763 0.882706 44.9733 0.780758 45.1706 0.705078C44.7989 0.836299 44.5494 1.01326 44.5407 1.01953ZM19.2429 39.4209L8.25361 47.8438C6.56488 49.2552 5.42158 48.0137 5.42158 48.0137L0.609077 43.5889C-0.456024 42.1577 0.609077 41.3574 0.609077 41.3574L10.9743 31.8311L19.2429 39.4209ZM29.1931 31.8936L48.0612 46.332V17.3311L29.1931 31.8936Z" fill="white"/>
</svg>
