<svg width="57" height="64" viewBox="0 0 57 64" xmlns="http://www.w3.org/2000/svg">
<path d="M57 0L51.6554 57.7773L28.4996 64L5.34346 57.7773L0 0H57ZM46.2304 11.7481H28.4788H10.4127L11.2767 18.7253H28.4788H29.4451L28.4788 19.1267L11.9054 26.0159L12.4551 32.8359L28.4788 32.8877L37.067 32.9149L36.5173 42.0085L28.4787 44.2673V44.2601L28.4128 44.2784L20.6495 42.3224L20.1784 36.6777H20.1527H12.9519H12.9265L13.8691 47.5749L28.4789 51.8869V51.8792L28.5053 51.8869L43.0368 47.6534L44.9218 26.0159H28.4789H28.4384L28.4789 25.9984L45.5241 18.7253L46.2304 11.7481Z"/>
</svg>
