<svg width="30" height="30" viewBox="0 0 40 40" xmlns="http://www.w3.org/2000/svg">
<path d="M20 35.3486C20.7706 35.3486 21.3955 35.9736 21.3955 36.7441V38.6045C21.3955 39.3751 20.7706 40 20 40C19.2294 40 18.6045 39.3751 18.6045 38.6045V36.7441C18.6045 35.9736 19.2294 35.3486 20 35.3486ZM6.58887 31.4375C7.1338 30.8929 8.01767 30.8927 8.5625 31.4375C9.1073 31.9823 9.10708 32.8662 8.5625 33.4111L7.83105 34.1426C7.28612 34.6872 6.40224 34.6874 5.85742 34.1426C5.31262 33.5978 5.31283 32.7139 5.85742 32.1689L6.58887 31.4375ZM31.4375 31.4375C31.9824 30.8926 32.8662 30.8926 33.4111 31.4375L34.1416 32.168C34.6865 32.7129 34.6865 33.5967 34.1416 34.1416C33.5967 34.6865 32.7129 34.6865 32.168 34.1416L31.4375 33.4111C30.8926 32.8662 30.8926 31.9824 31.4375 31.4375ZM20 8.83691C26.165 8.83691 31.1631 13.835 31.1631 20C31.1631 26.165 26.165 31.1631 20 31.1631C13.835 31.1631 8.83691 26.165 8.83691 20C8.83692 13.835 13.835 8.83692 20 8.83691ZM3.25586 18.6045C4.02645 18.6045 4.65137 19.2294 4.65137 20C4.65136 20.7706 4.02645 21.3955 3.25586 21.3955H1.39551C0.624885 21.3955 2.19736e-06 20.7706 0 20C0 19.2294 0.624884 18.6045 1.39551 18.6045H3.25586ZM38.6045 18.6045C39.3751 18.6045 40 19.2294 40 20C40 20.7706 39.3751 21.3955 38.6045 21.3955H36.7441C35.9736 21.3955 35.3486 20.7706 35.3486 20C35.3486 19.2294 35.9736 18.6045 36.7441 18.6045H38.6045ZM32.168 5.8584C32.7129 5.31349 33.5967 5.31349 34.1416 5.8584C34.6865 6.40331 34.6865 7.28713 34.1416 7.83203L33.4111 8.5625C32.8662 9.1074 31.9824 9.10738 31.4375 8.5625C30.8926 8.01757 30.8926 7.13378 31.4375 6.58887L32.168 5.8584ZM5.85742 5.85742C6.40224 5.3126 7.28612 5.3128 7.83105 5.85742L8.5625 6.58887C9.10712 7.1338 9.10731 8.01767 8.5625 8.5625C8.01767 9.10731 7.1338 9.10712 6.58887 8.5625L5.85742 7.83105C5.3128 7.28612 5.3126 6.40224 5.85742 5.85742ZM20 0C20.7706 2.19734e-06 21.3955 0.624885 21.3955 1.39551V3.25586C21.3955 4.02645 20.7706 4.65136 20 4.65137C19.2294 4.65137 18.6045 4.02645 18.6045 3.25586V1.39551C18.6045 0.624884 19.2294 0 20 0Z"/>
</svg>
